<svg xmlns="http://www.w3.org/2000/svg" viewBox="0 0 1160 440" role="img" aria-label="Inductive bias: a useful starting assumption" style="font-family:Avenir Next,Segoe UI,sans-serif;--ink:#14171F;--ink-2:#4A5160;--ink-3:#6B7280;--line:#D9DDE5;--card:#FFFFFF;--transparent:transparent;--c-e:#245EDB;--t-e:#E4ECFF;--c-q:#8B2CDE;--t-q:#F1E5FC;--c-k:#AA4E08;--c-v:#0F766E;--c-a:#BE123C;--c-d:#147737;"><title>Inductive bias: a useful starting assumption</title><text x="35" y="29" font-size="29" fill="var(--ink)" text-anchor="start" font-weight="500">Inductive bias = assumptions built into how the model learns.</text><text x="35" y="106.5" font-size="26" fill="var(--ink-2)" text-anchor="start" font-weight="500">Example: move</text><text x="35" y="135.5" font-size="26" fill="var(--ink-2)" text-anchor="start" font-weight="500">the same stripe.</text><rect x="327" y="59" width="20" height="20" rx="0" fill="var(--card)" stroke="var(--line)" stroke-width="2"/><rect x="347" y="59" width="20" height="20" rx="0" fill="var(--card)" stroke="var(--line)" stroke-width="2"/><rect x="367" y="59" width="20" height="20" rx="0" fill="var(--card)" stroke="var(--line)" stroke-width="2"/><rect x="387" y="59" width="20" height="20" rx="0" fill="var(--card)" stroke="var(--line)" stroke-width="2"/><rect x="407" y="59" width="20" height="20" rx="0" fill="var(--card)" stroke="var(--line)" stroke-width="2"/><rect x="427" y="59" width="20" height="20" rx="0" fill="var(--card)" stroke="var(--line)" stroke-width="2"/><rect x="447" y="59" width="20" height="20" rx="0" fill="var(--card)" stroke="var(--line)" stroke-width="2"/><rect x="327" y="79" width="20" height="20" rx="0" fill="var(--card)" stroke="var(--line)" stroke-width="2"/><rect x="347" y="79" width="20" height="20" rx="0" fill="var(--ink)" stroke="var(--line)" stroke-width="2"/><rect x="367" y="79" width="20" height="20" rx="0" fill="var(--card)" stroke="var(--line)" stroke-width="2"/><rect x="387" y="79" width="20" height="20" rx="0" fill="var(--card)" stroke="var(--line)" stroke-width="2"/><rect x="407" y="79" width="20" height="20" rx="0" fill="var(--card)" stroke="var(--line)" stroke-width="2"/><rect x="427" y="79" width="20" height="20" rx="0" fill="var(--card)" stroke="var(--line)" stroke-width="2"/><rect x="447" y="79" width="20" height="20" rx="0" fill="var(--card)" stroke="var(--line)" stroke-width="2"/><rect x="327" y="99" width="20" height="20" rx="0" fill="var(--card)" stroke="var(--line)" stroke-width="2"/><rect x="347" y="99" width="20" height="20" rx="0" fill="var(--ink)" stroke="var(--line)" stroke-width="2"/><rect x="367" y="99" width="20" height="20" rx="0" fill="var(--card)" stroke="var(--line)" stroke-width="2"/><rect x="387" y="99" width="20" height="20" rx="0" fill="var(--card)" stroke="var(--line)" stroke-width="2"/><rect x="407" y="99" width="20" height="20" rx="0" fill="var(--card)" stroke="var(--line)" stroke-width="2"/><rect x="427" y="99" width="20" height="20" rx="0" fill="var(--card)" stroke="var(--line)" stroke-width="2"/><rect x="447" y="99" width="20" height="20" rx="0" fill="var(--card)" stroke="var(--line)" stroke-width="2"/><rect x="327" y="119" width="20" height="20" rx="0" fill="var(--card)" stroke="var(--line)" stroke-width="2"/><rect x="347" y="119" width="20" height="20" rx="0" fill="var(--ink)" stroke="var(--line)" stroke-width="2"/><rect x="367" y="119" width="20" height="20" rx="0" fill="var(--card)" stroke="var(--line)" stroke-width="2"/><rect x="387" y="119" width="20" height="20" rx="0" fill="var(--card)" stroke="var(--line)" stroke-width="2"/><rect x="407" y="119" width="20" height="20" rx="0" fill="var(--card)" stroke="var(--line)" stroke-width="2"/><rect x="427" y="119" width="20" height="20" rx="0" fill="var(--card)" stroke="var(--line)" stroke-width="2"/><rect x="447" y="119" width="20" height="20" rx="0" fill="var(--card)" stroke="var(--line)" stroke-width="2"/><rect x="327" y="139" width="20" height="20" rx="0" fill="var(--card)" stroke="var(--line)" stroke-width="2"/><rect x="347" y="139" width="20" height="20" rx="0" fill="var(--card)" stroke="var(--line)" stroke-width="2"/><rect x="367" y="139" width="20" height="20" rx="0" fill="var(--card)" stroke="var(--line)" stroke-width="2"/><rect x="387" y="139" width="20" height="20" rx="0" fill="var(--card)" stroke="var(--line)" stroke-width="2"/><rect x="407" y="139" width="20" height="20" rx="0" fill="var(--card)" stroke="var(--line)" stroke-width="2"/><rect x="427" y="139" width="20" height="20" rx="0" fill="var(--card)" stroke="var(--line)" stroke-width="2"/><rect x="447" y="139" width="20" height="20" rx="0" fill="var(--card)" stroke="var(--line)" stroke-width="2"/><rect x="327" y="79" width="60" height="60" rx="0" fill="var(--transparent)" stroke="var(--c-v)" stroke-width="2"/><rect x="749" y="59" width="20" height="20" rx="0" fill="var(--card)" stroke="var(--line)" stroke-width="2"/><rect x="769" y="59" width="20" height="20" rx="0" fill="var(--card)" stroke="var(--line)" stroke-width="2"/><rect x="789" y="59" width="20" height="20" rx="0" fill="var(--card)" stroke="var(--line)" stroke-width="2"/><rect x="809" y="59" width="20" height="20" rx="0" fill="var(--card)" stroke="var(--line)" stroke-width="2"/><rect x="829" y="59" width="20" height="20" rx="0" fill="var(--card)" stroke="var(--line)" stroke-width="2"/><rect x="849" y="59" width="20" height="20" rx="0" fill="var(--card)" stroke="var(--line)" stroke-width="2"/><rect x="869" y="59" width="20" height="20" rx="0" fill="var(--card)" stroke="var(--line)" stroke-width="2"/><rect x="749" y="79" width="20" height="20" rx="0" fill="var(--card)" stroke="var(--line)" stroke-width="2"/><rect x="769" y="79" width="20" height="20" rx="0" fill="var(--card)" stroke="var(--line)" stroke-width="2"/><rect x="789" y="79" width="20" height="20" rx="0" fill="var(--card)" stroke="var(--line)" stroke-width="2"/><rect x="809" y="79" width="20" height="20" rx="0" fill="var(--card)" stroke="var(--line)" stroke-width="2"/><rect x="829" y="79" width="20" height="20" rx="0" fill="var(--ink)" stroke="var(--line)" stroke-width="2"/><rect x="849" y="79" width="20" height="20" rx="0" fill="var(--card)" stroke="var(--line)" stroke-width="2"/><rect x="869" y="79" width="20" height="20" rx="0" fill="var(--card)" stroke="var(--line)" stroke-width="2"/><rect x="749" y="99" width="20" height="20" rx="0" fill="var(--card)" stroke="var(--line)" stroke-width="2"/><rect x="769" y="99" width="20" height="20" rx="0" fill="var(--card)" stroke="var(--line)" stroke-width="2"/><rect x="789" y="99" width="20" height="20" rx="0" fill="var(--card)" stroke="var(--line)" stroke-width="2"/><rect x="809" y="99" width="20" height="20" rx="0" fill="var(--card)" stroke="var(--line)" stroke-width="2"/><rect x="829" y="99" width="20" height="20" rx="0" fill="var(--ink)" stroke="var(--line)" stroke-width="2"/><rect x="849" y="99" width="20" height="20" rx="0" fill="var(--card)" stroke="var(--line)" stroke-width="2"/><rect x="869" y="99" width="20" height="20" rx="0" fill="var(--card)" stroke="var(--line)" stroke-width="2"/><rect x="749" y="119" width="20" height="20" rx="0" fill="var(--card)" stroke="var(--line)" stroke-width="2"/><rect x="769" y="119" width="20" height="20" rx="0" fill="var(--card)" stroke="var(--line)" stroke-width="2"/><rect x="789" y="119" width="20" height="20" rx="0" fill="var(--card)" stroke="var(--line)" stroke-width="2"/><rect x="809" y="119" width="20" height="20" rx="0" fill="var(--card)" stroke="var(--line)" stroke-width="2"/><rect x="829" y="119" width="20" height="20" rx="0" fill="var(--ink)" stroke="var(--line)" stroke-width="2"/><rect x="849" y="119" width="20" height="20" rx="0" fill="var(--card)" stroke="var(--line)" stroke-width="2"/><rect x="869" y="119" width="20" height="20" rx="0" fill="var(--card)" stroke="var(--line)" stroke-width="2"/><rect x="749" y="139" width="20" height="20" rx="0" fill="var(--card)" stroke="var(--line)" stroke-width="2"/><rect x="769" y="139" width="20" height="20" rx="0" fill="var(--card)" stroke="var(--line)" stroke-width="2"/><rect x="789" y="139" width="20" height="20" rx="0" fill="var(--card)" stroke="var(--line)" stroke-width="2"/><rect x="809" y="139" width="20" height="20" rx="0" fill="var(--card)" stroke="var(--line)" stroke-width="2"/><rect x="829" y="139" width="20" height="20" rx="0" fill="var(--card)" stroke="var(--line)" stroke-width="2"/><rect x="849" y="139" width="20" height="20" rx="0" fill="var(--card)" stroke="var(--line)" stroke-width="2"/><rect x="869" y="139" width="20" height="20" rx="0" fill="var(--card)" stroke="var(--line)" stroke-width="2"/><rect x="809" y="79" width="60" height="60" rx="0" fill="var(--transparent)" stroke="var(--c-v)" stroke-width="2"/><path d="M496 107 L720 107" fill="none" stroke="var(--c-e)" stroke-width="2.5" stroke-dasharray=""/><path d="M709.8683290659683 111.28360176539516 L720 107" fill="none" stroke="var(--c-e)" stroke-width="2.5" stroke-dasharray=""/><path d="M720 107 L709.8683290659683 102.71639823460484" fill="none" stroke="var(--c-e)" stroke-width="2.5" stroke-dasharray=""/><text x="608" y="80" font-size="23" fill="var(--c-e)" text-anchor="middle" font-weight="500">new location</text><text x="926" y="106.5" font-size="25" fill="var(--c-v)" text-anchor="start" font-weight="500">Same local</text><text x="926" y="135.5" font-size="25" fill="var(--c-v)" text-anchor="start" font-weight="500">pattern</text><rect x="35" y="184" width="265" height="44" rx="0" fill="var(--card)" stroke="var(--line)" stroke-width="2"/><text x="53" y="214.0" font-size="27" fill="var(--ink-2)" text-anchor="start" font-weight="500">What is built in?</text><rect x="300" y="184" width="410" height="44" rx="0" fill="var(--card)" stroke="var(--line)" stroke-width="2"/><text x="318" y="214.0" font-size="27" fill="var(--c-v)" text-anchor="start" font-weight="500">CNN</text><rect x="710" y="184" width="415" height="44" rx="0" fill="var(--card)" stroke="var(--line)" stroke-width="2"/><text x="728" y="214.0" font-size="27" fill="var(--c-q)" text-anchor="start" font-weight="500">ViT · global attention</text><rect x="35" y="228" width="265" height="64" rx="0" fill="var(--transparent)" stroke="var(--line)" stroke-width="2"/><text x="53" y="268.0" font-size="24" fill="var(--ink-2)" text-anchor="start" font-weight="500">Spatial structure</text><rect x="300" y="228" width="410" height="64" rx="0" fill="var(--transparent)" stroke="var(--line)" stroke-width="2"/><text x="318" y="253.5" font-size="24" fill="var(--c-v)" text-anchor="start" font-weight="500">Local filters, reused</text><text x="318" y="282.5" font-size="24" fill="var(--c-v)" text-anchor="start" font-weight="500">across the image</text><rect x="710" y="228" width="415" height="64" rx="0" fill="var(--transparent)" stroke="var(--line)" stroke-width="2"/><text x="728" y="253.5" font-size="24" fill="var(--c-q)" text-anchor="start" font-weight="500">Patches + position;</text><text x="728" y="282.5" font-size="24" fill="var(--c-q)" text-anchor="start" font-weight="500">flexible global mixing</text><rect x="35" y="292" width="265" height="64" rx="0" fill="var(--transparent)" stroke="var(--line)" stroke-width="2"/><text x="53" y="332.0" font-size="24" fill="var(--ink-2)" text-anchor="start" font-weight="500">The shifted stripe</text><rect x="300" y="292" width="410" height="64" rx="0" fill="var(--transparent)" stroke="var(--line)" stroke-width="2"/><text x="318" y="317.5" font-size="24" fill="var(--c-v)" text-anchor="start" font-weight="500">The same filter can</text><text x="318" y="346.5" font-size="24" fill="var(--c-v)" text-anchor="start" font-weight="500">detect it elsewhere</text><rect x="710" y="292" width="415" height="64" rx="0" fill="var(--transparent)" stroke="var(--line)" stroke-width="2"/><text x="728" y="317.5" font-size="24" fill="var(--c-q)" text-anchor="start" font-weight="500">Position can change</text><text x="728" y="346.5" font-size="24" fill="var(--c-q)" text-anchor="start" font-weight="500">the attention pattern</text><rect x="35" y="356" width="265" height="64" rx="0" fill="var(--transparent)" stroke="var(--line)" stroke-width="2"/><text x="53" y="396.0" font-size="24" fill="var(--ink-2)" text-anchor="start" font-weight="500">Learned from data</text><rect x="300" y="356" width="410" height="64" rx="0" fill="var(--transparent)" stroke="var(--line)" stroke-width="2"/><text x="318" y="396.0" font-size="24" fill="var(--c-v)" text-anchor="start" font-weight="500">Which local filters help</text><rect x="710" y="356" width="415" height="64" rx="0" fill="var(--transparent)" stroke="var(--line)" stroke-width="2"/><text x="728" y="396.0" font-size="24" fill="var(--c-q)" text-anchor="start" font-weight="500">Which patch relations help</text></svg>