<svg xmlns="http://www.w3.org/2000/svg" viewBox="0 0 1160 440" role="img" aria-label="What can a second block ask that the first could not?" style="font-family:Avenir Next,Segoe UI,sans-serif;--ink:#14171F;--ink-2:#4A5160;--ink-3:#6B7280;--line:#D9DDE5;--card:#FFFFFF;--transparent:transparent;--c-e:#245EDB;--t-e:#E4ECFF;--c-q:#8B2CDE;--t-q:#F1E5FC;--c-k:#AA4E08;--c-v:#0F766E;--c-a:#BE123C;--c-d:#147737;"><title>What can a second block ask that the first could not?</title><rect x="40" y="90" width="255" height="34" rx="4" fill="var(--t-e)" stroke="var(--c-e)" stroke-width="2"/><rect x="40" y="144" width="255" height="34" rx="4" fill="var(--t-e)" stroke="var(--c-e)" stroke-width="2"/><rect x="40" y="198" width="255" height="34" rx="4" fill="var(--t-e)" stroke="var(--c-e)" stroke-width="2"/><rect x="40" y="252" width="255" height="34" rx="4" fill="var(--t-e)" stroke="var(--c-e)" stroke-width="2"/><text x="167" y="365" font-size="24" fill="var(--c-e)" text-anchor="middle" font-weight="500">raw patch rows</text><g data-build="1"><path d="M320 190 L393 190" fill="none" stroke="var(--ink-3)" stroke-width="2.5" stroke-dasharray=""/><path d="M382.8683290659683 194.28360176539516 L393 190" fill="none" stroke="var(--ink-3)" stroke-width="2.5" stroke-dasharray=""/><path d="M393 190 L382.8683290659683 185.71639823460484" fill="none" stroke="var(--ink-3)" stroke-width="2.5" stroke-dasharray=""/><text x="358" y="160" font-size="22" fill="var(--ink-2)" text-anchor="middle" font-weight="500">block</text></g><rect x="425" y="90" width="255" height="34" rx="4" fill="var(--t-e)" stroke="var(--c-v)" stroke-width="2"/><rect x="425" y="144" width="255" height="34" rx="4" fill="var(--t-e)" stroke="var(--c-v)" stroke-width="2"/><rect x="425" y="198" width="255" height="34" rx="4" fill="var(--t-e)" stroke="var(--c-v)" stroke-width="2"/><rect x="425" y="252" width="255" height="34" rx="4" fill="var(--t-e)" stroke="var(--c-v)" stroke-width="2"/><text x="552" y="365" font-size="24" fill="var(--c-v)" text-anchor="middle" font-weight="500">contextual rows</text><g data-build="2"><path d="M705 190 L778 190" fill="none" stroke="var(--ink-3)" stroke-width="2.5" stroke-dasharray=""/><path d="M767.8683290659683 194.28360176539516 L778 190" fill="none" stroke="var(--ink-3)" stroke-width="2.5" stroke-dasharray=""/><path d="M778 190 L767.8683290659683 185.71639823460484" fill="none" stroke="var(--ink-3)" stroke-width="2.5" stroke-dasharray=""/><text x="743" y="160" font-size="22" fill="var(--ink-2)" text-anchor="middle" font-weight="500">block</text></g><rect x="810" y="90" width="255" height="34" rx="4" fill="var(--t-e)" stroke="var(--c-e)" stroke-width="2"/><rect x="810" y="144" width="255" height="34" rx="4" fill="var(--t-e)" stroke="var(--c-e)" stroke-width="2"/><rect x="810" y="198" width="255" height="34" rx="4" fill="var(--t-e)" stroke="var(--c-e)" stroke-width="2"/><rect x="810" y="252" width="255" height="34" rx="4" fill="var(--t-e)" stroke="var(--c-e)" stroke-width="2"/><text x="937" y="365" font-size="24" fill="var(--c-e)" text-anchor="middle" font-weight="500">richer contextual rows</text><g data-build="3"><text x="30" y="420" font-size="29" fill="var(--ink)" text-anchor="start" font-weight="500">A later query can depend on context read in earlier blocks.</text></g></svg>