<svg xmlns="http://www.w3.org/2000/svg" viewBox="0 0 1160 440" role="img" aria-label="Each query gets its own message" style="font-family:Avenir Next,Segoe UI,sans-serif;--ink:#14171F;--ink-2:#4A5160;--ink-3:#6B7280;--line:#D9DDE5;--card:#FFFFFF;--transparent:transparent;--c-e:#245EDB;--t-e:#E4ECFF;--c-q:#8B2CDE;--t-q:#F1E5FC;--c-k:#AA4E08;--c-v:#0F766E;--c-a:#BE123C;--c-d:#147737;"><title>Each query gets its own message</title><text x="35" y="32" font-size="29" fill="var(--ink)" text-anchor="start" font-weight="500">Keep the source values. Change the receiving query and its weights.</text><text x="105" y="104" font-size="25" fill="var(--ink-2)" text-anchor="middle" font-weight="500">Receiver</text><text x="377" y="104" font-size="25" fill="var(--c-q)" text-anchor="middle" font-weight="500">Its own 197 weights</text><text x="640" y="104" font-size="25" fill="var(--c-v)" text-anchor="middle" font-weight="500">Same V</text><text x="956" y="104" font-size="25" fill="var(--c-v)" text-anchor="middle" font-weight="500">Its own message · 1 × 64</text><rect x="35" y="137" width="145" height="64" rx="5" fill="var(--t-q)" stroke="var(--c-q)" stroke-width="2"/><text x="107.5" y="177.0" font-size="25" fill="var(--c-q)" text-anchor="middle" font-weight="500">CLS query</text><path d="M194 169 L237 169" fill="none" stroke="var(--c-q)" stroke-width="2.5" stroke-dasharray=""/><path d="M226.86832906596825 173.28360176539516 L237 169" fill="none" stroke="var(--c-q)" stroke-width="2.5" stroke-dasharray=""/><path d="M237 169 L226.86832906596825 164.71639823460484" fill="none" stroke="var(--c-q)" stroke-width="2.5" stroke-dasharray=""/><rect x="251.0" y="137" width="83.66666666666667" height="64" rx="0" fill="var(--transparent)" stroke="var(--c-q)" stroke-width="2"/><text x="292.8333333333333" y="178.0" font-size="23" fill="var(--c-q)" text-anchor="middle" font-weight="500">0.8606</text><rect x="334.6666666666667" y="137" width="83.66666666666667" height="64" rx="0" fill="var(--transparent)" stroke="var(--c-q)" stroke-width="2"/><text x="376.5" y="178.0" font-size="23" fill="var(--c-q)" text-anchor="middle" font-weight="500">0.0023</text><rect x="418.33333333333337" y="137" width="83.66666666666667" height="64" rx="0" fill="var(--transparent)" stroke="var(--c-q)" stroke-width="2"/><text x="460.1666666666667" y="178.0" font-size="23" fill="var(--c-q)" text-anchor="middle" font-weight="500">…</text><text x="532" y="180" font-size="34" fill="var(--ink)" text-anchor="start" font-weight="500">×</text><rect x="570" y="137" width="140" height="64" rx="5" fill="var(--card)" stroke="var(--c-v)" stroke-width="2"/><text x="640.0" y="177.0" font-size="25" fill="var(--c-v)" text-anchor="middle" font-weight="500">197 × 64</text><path d="M724 169 L777 169" fill="none" stroke="var(--c-v)" stroke-width="2.5" stroke-dasharray=""/><path d="M766.8683290659683 173.28360176539516 L777 169" fill="none" stroke="var(--c-v)" stroke-width="2.5" stroke-dasharray=""/><path d="M777 169 L766.8683290659683 164.71639823460484" fill="none" stroke="var(--c-v)" stroke-width="2.5" stroke-dasharray=""/><rect x="790.0" y="137" width="110.0" height="64" rx="0" fill="var(--transparent)" stroke="var(--c-v)" stroke-width="2"/><text x="845.0" y="178.0" font-size="28" fill="var(--c-v)" text-anchor="middle" font-weight="500">0.353</text><rect x="900.0" y="137" width="110.0" height="64" rx="0" fill="var(--transparent)" stroke="var(--c-v)" stroke-width="2"/><text x="955.0" y="178.0" font-size="28" fill="var(--c-v)" text-anchor="middle" font-weight="500">0.057</text><rect x="1010.0" y="137" width="110.0" height="64" rx="0" fill="var(--transparent)" stroke="var(--c-v)" stroke-width="2"/><text x="1065.0" y="178.0" font-size="28" fill="var(--c-v)" text-anchor="middle" font-weight="500">…</text><g data-build="1"><rect x="35" y="270" width="145" height="64" rx="5" fill="var(--t-q)" stroke="var(--c-q)" stroke-width="2"/><text x="107.5" y="310.0" font-size="25" fill="var(--c-q)" text-anchor="middle" font-weight="500">P63 query</text><path d="M194 302 L237 302" fill="none" stroke="var(--c-q)" stroke-width="2.5" stroke-dasharray=""/><path d="M226.86832906596825 306.28360176539513 L237 302" fill="none" stroke="var(--c-q)" stroke-width="2.5" stroke-dasharray=""/><path d="M237 302 L226.86832906596825 297.71639823460487" fill="none" stroke="var(--c-q)" stroke-width="2.5" stroke-dasharray=""/><rect x="251.0" y="270" width="83.66666666666667" height="64" rx="0" fill="var(--transparent)" stroke="var(--c-q)" stroke-width="2"/><text x="292.8333333333333" y="311.0" font-size="23" fill="var(--c-q)" text-anchor="middle" font-weight="500">0.2644</text><rect x="334.6666666666667" y="270" width="83.66666666666667" height="64" rx="0" fill="var(--transparent)" stroke="var(--c-q)" stroke-width="2"/><text x="376.5" y="311.0" font-size="23" fill="var(--c-q)" text-anchor="middle" font-weight="500">0.0001</text><rect x="418.33333333333337" y="270" width="83.66666666666667" height="64" rx="0" fill="var(--transparent)" stroke="var(--c-q)" stroke-width="2"/><text x="460.1666666666667" y="311.0" font-size="23" fill="var(--c-q)" text-anchor="middle" font-weight="500">…</text><text x="532" y="313" font-size="34" fill="var(--ink)" text-anchor="start" font-weight="500">×</text><rect x="570" y="270" width="140" height="64" rx="5" fill="var(--card)" stroke="var(--c-v)" stroke-width="2"/><text x="640.0" y="310.0" font-size="25" fill="var(--c-v)" text-anchor="middle" font-weight="500">197 × 64</text><path d="M724 302 L777 302" fill="none" stroke="var(--c-v)" stroke-width="2.5" stroke-dasharray=""/><path d="M766.8683290659683 306.28360176539513 L777 302" fill="none" stroke="var(--c-v)" stroke-width="2.5" stroke-dasharray=""/><path d="M777 302 L766.8683290659683 297.71639823460487" fill="none" stroke="var(--c-v)" stroke-width="2.5" stroke-dasharray=""/><rect x="790.0" y="270" width="110.0" height="64" rx="0" fill="var(--transparent)" stroke="var(--c-v)" stroke-width="2"/><text x="845.0" y="311.0" font-size="28" fill="var(--c-v)" text-anchor="middle" font-weight="500">0.050</text><rect x="900.0" y="270" width="110.0" height="64" rx="0" fill="var(--transparent)" stroke="var(--c-v)" stroke-width="2"/><text x="955.0" y="311.0" font-size="28" fill="var(--c-v)" text-anchor="middle" font-weight="500">−0.358</text><rect x="1010.0" y="270" width="110.0" height="64" rx="0" fill="var(--transparent)" stroke="var(--c-v)" stroke-width="2"/><text x="1065.0" y="311.0" font-size="28" fill="var(--c-v)" text-anchor="middle" font-weight="500">…</text></g><text x="35" y="428" font-size="27" fill="var(--c-q)" text-anchor="start" font-weight="500">CLS’s messages update CLS. P63’s messages update P63. Every row has its own.</text></svg>