<svg xmlns="http://www.w3.org/2000/svg" viewBox="0 0 1160 440" role="img" aria-label="What job remains for the MLP?" style="font-family:Avenir Next,Segoe UI,sans-serif;--ink:#30343B;--ink-2:#59616D;--ink-3:#6B7280;--line:#D9DDE5;--card:#FFFFFF;--transparent:transparent;--vision:#3478E5;--language:#8B5BB5;--mixing:#178F82;--special:#B98224;--loss:#D45555;--neutral:#30343B;--cnn:#6E817B;--t-special:#FBF1DB;--t-language:#F1EAF7;--t-mixing:#E6F3EF;--t-e:#EAF1FC;--t-q:#F1EAF7;--c-e:#3478E5;--c-q:#8B5BB5;--c-k:#B98224;--c-v:#178F82;--c-a:#D45555;--c-d:#6E817B;"><title>What job remains for the MLP?</title><text x="268" y="43" font-size="30" fill="var(--mixing)" text-anchor="middle" font-weight="650">ATTENTION</text><text x="858" y="43" font-size="30" fill="var(--mixing)" text-anchor="middle" font-weight="650">MLP</text><rect x="65" y="80" width="255" height="48" rx="5" fill="var(--t-e)" stroke="var(--vision)" stroke-width="2"/><text x="192.5" y="112.0" font-size="26" fill="var(--vision)" text-anchor="middle" font-weight="500">row 1</text><rect x="65" y="142" width="255" height="48" rx="5" fill="var(--t-e)" stroke="var(--vision)" stroke-width="2"/><text x="192.5" y="174.0" font-size="26" fill="var(--vision)" text-anchor="middle" font-weight="500">row 2</text><rect x="65" y="204" width="255" height="48" rx="5" fill="var(--t-e)" stroke="var(--vision)" stroke-width="2"/><text x="192.5" y="236.0" font-size="26" fill="var(--vision)" text-anchor="middle" font-weight="500">row 3</text><path d="M331 104 L490 104" fill="none" stroke="var(--mixing)" stroke-width="1" stroke-dasharray=""/><path d="M331 104 L490 166" fill="none" stroke="var(--mixing)" stroke-width="1" stroke-dasharray=""/><path d="M331 104 L490 228" fill="none" stroke="var(--mixing)" stroke-width="1" stroke-dasharray=""/><path d="M331 166 L490 104" fill="none" stroke="var(--mixing)" stroke-width="1" stroke-dasharray=""/><path d="M331 166 L490 166" fill="none" stroke="var(--mixing)" stroke-width="1" stroke-dasharray=""/><path d="M331 166 L490 228" fill="none" stroke="var(--mixing)" stroke-width="1" stroke-dasharray=""/><path d="M331 228 L490 104" fill="none" stroke="var(--mixing)" stroke-width="1" stroke-dasharray=""/><path d="M331 228 L490 166" fill="none" stroke="var(--mixing)" stroke-width="1" stroke-dasharray=""/><path d="M331 228 L490 228" fill="none" stroke="var(--mixing)" stroke-width="1" stroke-dasharray=""/><rect x="501" y="80" width="68" height="48" rx="5" fill="var(--t-e)" stroke="var(--vision)" stroke-width="2"/><text x="535.0" y="112.0" font-size="26" fill="var(--vision)" text-anchor="middle" font-weight="500">1</text><rect x="501" y="142" width="68" height="48" rx="5" fill="var(--t-e)" stroke="var(--vision)" stroke-width="2"/><text x="535.0" y="174.0" font-size="26" fill="var(--vision)" text-anchor="middle" font-weight="500">2</text><rect x="501" y="204" width="68" height="48" rx="5" fill="var(--t-e)" stroke="var(--vision)" stroke-width="2"/><text x="535.0" y="236.0" font-size="26" fill="var(--vision)" text-anchor="middle" font-weight="500">3</text><rect x="695" y="82" width="340" height="175" rx="5" fill="var(--t-mixing)" stroke="var(--mixing)" stroke-width="2"/><text x="865.0" y="147.5" font-size="31" fill="var(--mixing)" text-anchor="middle" font-weight="500">one row at a time</text><text x="865.0" y="177.5" font-size="31" fill="var(--mixing)" text-anchor="middle" font-weight="500">192 → 768 → 192</text><text x="865.0" y="207.5" font-size="31" fill="var(--mixing)" text-anchor="middle" font-weight="500">GELU between layers</text><text x="285" y="349" font-size="34" fill="var(--mixing)" text-anchor="middle" font-weight="500">BETWEEN rows</text><text x="867" y="349" font-size="34" fill="var(--mixing)" text-anchor="middle" font-weight="500">WITHIN each row</text></svg>