<svg xmlns="http://www.w3.org/2000/svg" viewBox="0 0 1160 480" role="img" aria-label="Inside each block: mix, transform, keep the residual" style="font-family:Avenir Next,Segoe UI,sans-serif;--ink:#30343B;--ink-2:#59616D;--ink-3:#6B7280;--line:#D9DDE5;--card:#FFFFFF;--transparent:transparent;--vision:#3478E5;--language:#8B5BB5;--mixing:#178F82;--special:#B98224;--loss:#D45555;--neutral:#30343B;--cnn:#6E817B;--t-special:#FBF1DB;--t-language:#F1EAF7;--t-mixing:#E6F3EF;--t-e:#EAF1FC;--t-q:#F1EAF7;--c-e:#3478E5;--c-q:#8B5BB5;--c-k:#B98224;--c-v:#178F82;--c-a:#D45555;--c-d:#6E817B;"><title>Inside each block: mix, transform, keep the residual</title><text x="35" y="32" font-size="28" fill="var(--vision)" text-anchor="start" font-weight="650">ONE PRE-LAYERNORM BLOCK · input and output: 197 × 192</text><rect x="35" y="105" width="136" height="72" rx="5" fill="var(--t-e)" stroke="var(--vision)" stroke-width="2"/><text x="103.0" y="149.0" font-size="32" fill="var(--vision)" text-anchor="middle" font-weight="500">E</text><path d="M180 141 L222 141" fill="none" stroke="var(--vision)" stroke-width="2.5" stroke-dasharray=""/><path d="M211.86832906596825 145.28360176539516 L222 141" fill="none" stroke="var(--vision)" stroke-width="2.5" stroke-dasharray=""/><path d="M222 141 L211.86832906596825 136.71639823460484" fill="none" stroke="var(--vision)" stroke-width="2.5" stroke-dasharray=""/><rect x="235" y="105" width="208" height="72" rx="5" fill="var(--card)" stroke="var(--neutral)" stroke-width="2"/><text x="339.0" y="149.0" font-size="26" fill="var(--neutral)" text-anchor="middle" font-weight="500">LayerNorm</text><path d="M455 141 L497 141" fill="none" stroke="var(--ink-3)" stroke-width="2.5" stroke-dasharray=""/><path d="M486.8683290659683 145.28360176539516 L497 141" fill="none" stroke="var(--ink-3)" stroke-width="2.5" stroke-dasharray=""/><path d="M497 141 L486.8683290659683 136.71639823460484" fill="none" stroke="var(--ink-3)" stroke-width="2.5" stroke-dasharray=""/><rect x="510" y="97" width="367" height="88" rx="5" fill="var(--t-mixing)" stroke="var(--mixing)" stroke-width="2"/><text x="693.5" y="134.0" font-size="25" fill="var(--mixing)" text-anchor="middle" font-weight="500">Self-attention</text><text x="693.5" y="164.0" font-size="25" fill="var(--mixing)" text-anchor="middle" font-weight="500">3 heads · 64 features each</text><path d="M890 141 L955 141" fill="none" stroke="var(--mixing)" stroke-width="2.5" stroke-dasharray=""/><path d="M944.8683290659683 145.28360176539516 L955 141" fill="none" stroke="var(--mixing)" stroke-width="2.5" stroke-dasharray=""/><path d="M955 141 L944.8683290659683 136.71639823460484" fill="none" stroke="var(--mixing)" stroke-width="2.5" stroke-dasharray=""/><circle cx="980" cy="141" r="25" fill="var(--card)" stroke="var(--vision)" stroke-width="2"/><text x="980" y="152" font-size="34" fill="var(--vision)" text-anchor="middle" font-weight="500">+</text><path d="M198 141 L198 60" fill="none" stroke="var(--vision)" stroke-width="2" stroke-dasharray=""/><path d="M198 60 L980 60" fill="none" stroke="var(--vision)" stroke-width="2" stroke-dasharray=""/><path d="M980 60 L980 106" fill="none" stroke="var(--vision)" stroke-width="2.5" stroke-dasharray=""/><path d="M975.7163982346049 95.86832906596827 L980 106" fill="none" stroke="var(--vision)" stroke-width="2.5" stroke-dasharray=""/><path d="M980 106 L984.2836017653951 95.86832906596827" fill="none" stroke="var(--vision)" stroke-width="2.5" stroke-dasharray=""/><path d="M1016 141 L1065 141" fill="none" stroke="var(--vision)" stroke-width="2.5" stroke-dasharray=""/><path d="M1054.8683290659683 145.28360176539516 L1065 141" fill="none" stroke="var(--vision)" stroke-width="2.5" stroke-dasharray=""/><path d="M1065 141 L1054.8683290659683 136.71639823460484" fill="none" stroke="var(--vision)" stroke-width="2.5" stroke-dasharray=""/><text x="1110" y="152" font-size="31" fill="var(--vision)" text-anchor="middle" font-weight="650">U</text><rect x="35" y="330" width="136" height="72" rx="5" fill="var(--t-e)" stroke="var(--vision)" stroke-width="2"/><text x="103.0" y="374.0" font-size="32" fill="var(--vision)" text-anchor="middle" font-weight="500">U</text><path d="M180 366 L222 366" fill="none" stroke="var(--vision)" stroke-width="2.5" stroke-dasharray=""/><path d="M211.86832906596825 370.28360176539513 L222 366" fill="none" stroke="var(--vision)" stroke-width="2.5" stroke-dasharray=""/><path d="M222 366 L211.86832906596825 361.71639823460487" fill="none" stroke="var(--vision)" stroke-width="2.5" stroke-dasharray=""/><rect x="235" y="330" width="208" height="72" rx="5" fill="var(--card)" stroke="var(--neutral)" stroke-width="2"/><text x="339.0" y="374.0" font-size="26" fill="var(--neutral)" text-anchor="middle" font-weight="500">LayerNorm</text><path d="M455 366 L497 366" fill="none" stroke="var(--ink-3)" stroke-width="2.5" stroke-dasharray=""/><path d="M486.8683290659683 370.28360176539513 L497 366" fill="none" stroke="var(--ink-3)" stroke-width="2.5" stroke-dasharray=""/><path d="M497 366 L486.8683290659683 361.71639823460487" fill="none" stroke="var(--ink-3)" stroke-width="2.5" stroke-dasharray=""/><rect x="510" y="322" width="367" height="88" rx="5" fill="var(--card)" stroke="var(--neutral)" stroke-width="2"/><text x="693.5" y="359.0" font-size="25" fill="var(--neutral)" text-anchor="middle" font-weight="500">MLP</text><text x="693.5" y="389.0" font-size="25" fill="var(--neutral)" text-anchor="middle" font-weight="500">192 → 768 → 192 · GELU</text><path d="M890 366 L955 366" fill="none" stroke="var(--mixing)" stroke-width="2.5" stroke-dasharray=""/><path d="M944.8683290659683 370.28360176539513 L955 366" fill="none" stroke="var(--mixing)" stroke-width="2.5" stroke-dasharray=""/><path d="M955 366 L944.8683290659683 361.71639823460487" fill="none" stroke="var(--mixing)" stroke-width="2.5" stroke-dasharray=""/><circle cx="980" cy="366" r="25" fill="var(--card)" stroke="var(--vision)" stroke-width="2"/><text x="980" y="377" font-size="34" fill="var(--vision)" text-anchor="middle" font-weight="500">+</text><path d="M198 366 L198 285" fill="none" stroke="var(--vision)" stroke-width="2" stroke-dasharray=""/><path d="M198 285 L980 285" fill="none" stroke="var(--vision)" stroke-width="2" stroke-dasharray=""/><path d="M980 285 L980 331" fill="none" stroke="var(--vision)" stroke-width="2.5" stroke-dasharray=""/><path d="M975.7163982346049 320.8683290659683 L980 331" fill="none" stroke="var(--vision)" stroke-width="2.5" stroke-dasharray=""/><path d="M980 331 L984.2836017653951 320.8683290659683" fill="none" stroke="var(--vision)" stroke-width="2.5" stroke-dasharray=""/><text x="580" y="272" font-size="23" fill="var(--vision)" text-anchor="middle" font-weight="500">Carry the input along the skip path</text><path d="M1016 366 L1065 366" fill="none" stroke="var(--vision)" stroke-width="2.5" stroke-dasharray=""/><path d="M1054.8683290659683 370.28360176539513 L1065 366" fill="none" stroke="var(--vision)" stroke-width="2.5" stroke-dasharray=""/><path d="M1065 366 L1054.8683290659683 361.71639823460487" fill="none" stroke="var(--vision)" stroke-width="2.5" stroke-dasharray=""/><text x="1110" y="377" font-size="31" fill="var(--vision)" text-anchor="middle" font-weight="650">E′</text><path d="M1110 168 L1110 239" fill="none" stroke="var(--vision)" stroke-width="2" stroke-dasharray=""/><path d="M1110 239 L103 239" fill="none" stroke="var(--vision)" stroke-width="2" stroke-dasharray=""/><path d="M103 239 L103 317" fill="none" stroke="var(--vision)" stroke-width="2.5" stroke-dasharray=""/><path d="M98.71639823460484 306.8683290659683 L103 317" fill="none" stroke="var(--vision)" stroke-width="2.5" stroke-dasharray=""/><path d="M103 317 L107.28360176539516 306.8683290659683" fill="none" stroke="var(--vision)" stroke-width="2.5" stroke-dasharray=""/><text x="580" y="460" font-size="28" fill="var(--ink)" text-anchor="middle" font-weight="500">Attention mixes rows. The MLP transforms each row. Both add a residual update.</text></svg>